<svg width="354" height="129" viewBox="0 0 354 129" fill="none" xmlns="http://www.w3.org/2000/svg">
<path d="M30.4375 87.875C28.8958 82.75 26.6458 75.7917 23.6875 67C20.7292 58.2083 17.8125 50.0417 14.9375 42.5C12.1042 34.9583 10.0208 30.2708 8.6875 28.4375L3.25 28C1.70833 23.375 0.9375 19.4792 0.9375 16.3125C2.39583 12.6875 4.58333 9.9375 7.5 8.0625C10.4167 6.14583 13.9583 5.1875 18.125 5.1875C24.5417 5.1875 29.375 7.97917 32.625 13.5625C34.6667 17.0625 36.3958 21.4583 37.8125 26.75C39.2708 32 40.6875 38.3333 42.0625 45.75C44.7708 59.875 46.4375 71.6042 47.0625 80.9375L48.5 80.6875C49.5833 78.3125 50.9583 73.4792 52.625 66.1875C54.2917 58.8958 55.7292 51.375 56.9375 43.625C58.1458 35.8333 58.75 29.9792 58.75 26.0625L50.5 24.875C49.9167 22.7917 49.5 20.9792 49.25 19.4375C49 17.8542 48.8542 16.1458 48.8125 14.3125C48.8125 14.1458 48.8125 13.9167 48.8125 13.625C48.8542 13.3333 48.8542 12.9792 48.8125 12.5625C49.7292 11.4792 51.25 10.3542 53.375 9.1875C55.5 8.02083 57.9583 7.04167 60.75 6.25C63.5833 5.45833 66.4167 5.0625 69.25 5.0625C74.9583 5.0625 79.1458 6.47917 81.8125 9.3125C84.4792 12.1042 85.8125 16.3958 85.8125 22.1875C85.8125 26.1875 85.2708 30.9375 84.1875 36.4375C83.1042 41.9375 81.5833 47.625 79.625 53.5C78.2083 57.75 76.0833 63.0625 73.25 69.4375C70.4167 75.7708 67.375 81.8542 64.125 87.6875C60.9167 93.5208 58.0208 97.9167 55.4375 100.875C54.2292 101.667 52.7708 102.25 51.0625 102.625C49.3542 103.042 47.6458 103.25 45.9375 103.25C43.5625 103.25 41.125 102.917 38.625 102.25C36.1667 101.625 33.9792 100.729 32.0625 99.5625C30.1875 98.3958 28.875 97.0625 28.125 95.5625L30.4375 87.875Z" fill="white"/>
<path d="M94 64.1875C94 48.7708 94.3958 34.5417 95.1875 21.5L88.125 20.25C87.125 16.4167 86.625 12.2917 86.625 7.875C87.25 7.08333 88.4167 6.10417 90.125 4.9375C91.8333 3.77083 93.8125 2.75 96.0625 1.875C98.3542 1 100.625 0.5625 102.875 0.5625C108 0.5625 111.812 1.875 114.312 4.5C116.812 7.125 118.062 11.1458 118.062 16.5625C118.062 19.7708 117.771 24.7292 117.188 31.4375C116.646 38.1042 115.854 44.5417 114.812 50.75L113.062 61.375L115.062 62.0625L117.188 53.8125C119.188 46.1042 122.208 39.875 126.25 35.125C130.333 30.3333 135.438 27.9375 141.562 27.9375C146.146 27.9375 149.875 28.9375 152.75 30.9375C155.667 32.8958 157.771 35.5 159.062 38.75C160.354 41.9583 161 45.5 161 49.375C161 54.625 160.5 60.5208 159.5 67.0625C158.5 73.5625 157.167 79.6458 155.5 85.3125C153.875 90.8542 151.167 95.2292 147.375 98.4375C143.625 101.646 138.938 103.25 133.312 103.25C131.104 103.25 128.271 102.833 124.812 102C121.354 101.167 117.521 99.8125 113.312 97.9375C112.688 98.9792 111.979 100 111.188 101C110.438 102 109.771 102.75 109.188 103.25C106.104 103.25 103.521 103 101.438 102.5C99.3542 102 97.7917 101.479 96.75 100.938C95.7083 100.354 95.1875 100 95.1875 99.875C94.3958 91.2917 94 79.3958 94 64.1875ZM132.125 86.75C132.625 86.75 132.938 86.7083 133.062 86.625C134.562 81 135.312 72.4792 135.312 61.0625C135.312 59.1042 135.208 57.5208 135 56.3125C134.042 55.1042 132.667 54.5 130.875 54.5C130.292 55 128.292 58.2917 124.875 64.375C121.458 70.4167 118.938 75.0625 117.312 78.3125V81.3125C119.604 82.8958 122.25 84.2083 125.25 85.25C128.25 86.25 130.542 86.75 132.125 86.75ZM166.812 20.25C166.188 17.7083 165.771 15.6042 165.562 13.9375C165.354 12.2292 165.271 10.2708 165.312 8.0625C166.188 6.9375 167.542 5.8125 169.375 4.6875C171.25 3.52083 173.417 2.54167 175.875 1.75C178.375 0.958333 180.958 0.5625 183.625 0.5625C188.833 0.5625 192.833 1.875 195.625 4.5C198.417 7.125 199.812 11 199.812 16.125C199.812 19.7917 199.5 25.6875 198.875 33.8125C198.25 41.9375 197.354 50.5833 196.188 59.75C195.021 68.875 193.688 76.8542 192.188 83.6875L192.312 83.8125L201.562 79.9375C204.812 82.7292 206.708 86.4375 207.25 91.0625C207.25 91.3542 206.312 92.5625 204.438 94.6875C202.562 96.7708 200.083 98.7292 197 100.562C193.958 102.354 190.458 103.25 186.5 103.25C182.375 103.25 179.021 102.104 176.438 99.8125C173.896 97.5208 172.688 93.6042 172.812 88.0625L172.938 76.8125C172.979 66.1458 173.083 56.5417 173.25 48C173.458 39.4583 173.875 30.6458 174.5 21.5625L166.812 20.25ZM212.312 65.0625C212.312 57.5208 213.521 50.9792 215.938 45.4375C218.354 39.8958 222.062 35.6042 227.062 32.5625C232.062 29.4792 238.333 27.9375 245.875 27.9375C254.208 27.9375 260.75 29.5 265.5 32.625C270.25 35.7083 273.562 40 275.438 45.5C277.354 51 278.312 57.7292 278.312 65.6875C278.312 72.8958 277.042 79.3333 274.5 85C272 90.625 268.208 95.0833 263.125 98.375C258.083 101.625 251.896 103.25 244.562 103.25C233.229 103.25 225.021 99.7708 219.938 92.8125C214.854 85.8125 212.312 76.5625 212.312 65.0625ZM247.125 84.9375C249.25 84.9375 250.542 84.7708 251 84.4375C251.958 82.7708 252.688 80.4167 253.188 77.375C253.688 74.3333 253.938 71.0417 253.938 67.5C253.938 64.25 253.729 61.2083 253.312 58.375C252.896 55.5 252.312 53.25 251.562 51.625C251.104 51.0833 250.188 50.6875 248.812 50.4375C247.438 50.1458 245.938 50 244.312 50C242.188 50 240.729 50.2292 239.938 50.6875C237.854 54.2708 236.812 59.25 236.812 65.625C236.812 68.625 237.042 71.6875 237.5 74.8125C237.958 77.9375 238.542 80.7708 239.25 83.3125C239.75 83.8542 240.771 84.2708 242.312 84.5625C243.854 84.8125 245.458 84.9375 247.125 84.9375ZM323.312 111.938C326.104 111.938 328.521 111.625 330.562 111C331.188 110.375 331.625 109.646 331.875 108.812C332.125 108.021 332.25 107.271 332.25 106.562C332.25 105.812 332.188 105.25 332.062 104.875C331.938 104.542 331.729 104.229 331.438 103.938C329.688 103.646 327.625 103.438 325.25 103.312C322.917 103.229 321.521 103.167 321.062 103.125C315.271 102.875 310.562 102.458 306.938 101.875C303.312 101.25 300.208 99.9167 297.625 97.875C295.042 95.7917 293.75 92.6667 293.75 88.5C293.75 86.25 294.479 84.1458 295.938 82.1875C297.396 80.1875 299.292 78.4375 301.625 76.9375C296.875 74.9792 293.062 72.0417 290.188 68.125C287.354 64.1667 285.938 59.0625 285.938 52.8125C285.938 46.6042 287.521 41.625 290.688 37.875C293.896 34.0833 297.833 31.4167 302.5 29.875C307.167 28.3333 311.917 27.5625 316.75 27.5625C319.792 27.5625 322.771 27.8542 325.688 28.4375C328.604 29.0208 331.312 29.8542 333.812 30.9375L331.125 15.0625C333.667 13.5208 336.833 12.75 340.625 12.75C343.375 12.75 345.938 13.2083 348.312 14.125C350.688 15.0417 352.5 16.3542 353.75 18.0625C353.833 18.4792 353.875 19.1458 353.875 20.0625C353.875 23.4792 353.25 27.2917 352 31.5C350.792 35.6667 348.688 39.0208 345.688 41.5625C347.188 44.5625 347.938 47.7917 347.938 51.25C347.938 56.3333 346.958 61.0208 345 65.3125C343.083 69.6042 339.875 73.1042 335.375 75.8125C330.875 78.4792 325.021 79.8125 317.812 79.8125C315.729 79.8125 313.562 79.6875 311.312 79.4375C311.188 81.5208 311.688 83.6042 312.812 85.6875C318.438 84.6042 322.979 84.0417 326.438 84L330.688 83.9375C336.438 83.9375 340.792 84.2917 343.75 85C347 85.7917 349.417 87.5833 351 90.375C352.625 93.1667 353.438 96.5625 353.438 100.562C353.438 106.812 351.521 112.062 347.688 116.312C343.896 120.604 338.958 123.792 332.875 125.875C326.833 127.958 320.417 129 313.625 129C307.333 129 301.729 127.938 296.812 125.812C291.896 123.688 288.792 119.792 287.5 114.125C288.875 109.333 291.5 105.708 295.375 103.25C300.583 106.375 305.562 108.604 310.312 109.938C315.104 111.271 319.438 111.938 323.312 111.938ZM319.5 64.375C322.5 64.375 324.25 64.1875 324.75 63.8125C325.875 61.5625 326.438 59.25 326.438 56.875C326.438 54.4167 325.875 52.1042 324.75 49.9375C324.208 49.4792 323 49.125 321.125 48.875C319.292 48.625 317.292 48.5 315.125 48.5C312.417 48.5 310.604 48.6667 309.688 49C308.396 51.2917 307.75 53.6042 307.75 55.9375C307.75 58.3125 308.354 60.5625 309.562 62.6875C310.479 63.2708 311.854 63.7083 313.688 64C315.562 64.25 317.5 64.375 319.5 64.375Z" fill="#FF0000"/>
</svg>
