<svg width="200" height="231" viewBox="0 0 200 231" fill="none" xmlns="http://www.w3.org/2000/svg">
<path d="M69.9316 194.895C66.3184 182.883 61.0449 166.574 54.1113 145.969C47.1777 125.363 40.3418 106.223 33.6035 88.5469C26.9629 70.8711 22.0801 59.8848 18.9551 55.5879L6.21094 54.5625C2.59766 43.7227 0.791016 34.5918 0.791016 27.1699C4.20898 18.6738 9.33594 12.2285 16.1719 7.83398C23.0078 3.3418 31.3086 1.0957 41.0742 1.0957C56.1133 1.0957 67.4414 7.63867 75.0586 20.7246C79.8438 28.9277 83.8965 39.2305 87.2168 51.6328C90.6348 63.9375 93.9551 78.7812 97.1777 96.1641C103.525 129.27 107.432 156.76 108.896 178.635L112.266 178.049C114.805 172.482 118.027 161.154 121.934 144.064C125.84 126.975 129.209 109.348 132.041 91.1836C134.873 72.9219 136.289 59.2012 136.289 50.0215L116.953 47.2383C115.586 42.3555 114.609 38.1074 114.023 34.4941C113.438 30.7832 113.096 26.7793 112.998 22.4824C112.998 22.0918 112.998 21.5547 112.998 20.8711C113.096 20.1875 113.096 19.3574 112.998 18.3809C115.146 15.8418 118.711 13.2051 123.691 10.4707C128.672 7.73633 134.434 5.44141 140.977 3.58594C147.617 1.73047 154.258 0.802734 160.898 0.802734C174.277 0.802734 184.092 4.12305 190.342 10.7637C196.592 17.3066 199.717 27.3652 199.717 40.9395C199.717 50.3145 198.447 61.4473 195.908 74.3379C193.369 87.2285 189.805 100.559 185.215 114.328C181.895 124.289 176.914 136.74 170.273 151.682C163.633 166.525 156.504 180.783 148.887 194.455C141.367 208.127 134.58 218.43 128.525 225.363C125.693 227.219 122.275 228.586 118.271 229.465C114.268 230.441 110.264 230.93 106.26 230.93C100.693 230.93 94.9805 230.148 89.1211 228.586C83.3594 227.121 78.2324 225.021 73.7402 222.287C69.3457 219.553 66.2695 216.428 64.5117 212.912L69.9316 194.895Z" fill="#FF0000"/>
</svg>
